<?xml version="1.0" encoding="UTF-8"?>
<!DOCTYPE svg PUBLIC "-//W3C//DTD SVG 1.1//EN" "http://www.w3.org/Graphics/SVG/1.1/DTD/svg11.dtd">
<svg xmlns="http://www.w3.org/2000/svg" version="1.1" width="245px" height="88px" style="shape-rendering:geometricPrecision; text-rendering:geometricPrecision; image-rendering:optimizeQuality; fill-rule:evenodd; clip-rule:evenodd" xmlns:xlink="http://www.w3.org/1999/xlink">
<g><path style="opacity:1" fill="#10100e" d="M 210.5,0.5 C 215.363,0.180544 220.03,0.513877 224.5,1.5C 225.952,2.30192 227.618,2.80192 229.5,3C 214.831,3.51158 200.164,4.01158 185.5,4.5C 180.786,4.35307 176.119,4.6864 171.5,5.5C 159.135,6.14347 146.801,7.14347 134.5,8.5C 124.071,9.11891 113.738,10.4522 103.5,12.5C 92.9887,13.7358 82.6554,15.7358 72.5,18.5C 71.5,18.5 70.5,18.5 69.5,18.5C 69.838,15.8431 69.1713,13.5098 67.5,11.5C 68.5,11.1667 69.5,10.8333 70.5,10.5C 89.1929,7.44092 107.86,5.10759 126.5,3.5C 126.833,3.5 127.167,3.5 127.5,3.5C 136.372,3.58143 145.039,2.91476 153.5,1.5C 172.497,1.02094 191.497,0.687606 210.5,0.5 Z"/></g>
<g><path style="opacity:1" fill="#4e4e4c" d="M 153.5,1.5 C 145.039,2.91476 136.372,3.58143 127.5,3.5C 128.952,2.69808 130.618,2.19808 132.5,2C 139.492,1.50038 146.492,1.33371 153.5,1.5 Z"/></g>
<g><path style="opacity:1" fill="#c5c5c5" d="M 119.5,0.5 C 110.987,1.80692 102.32,2.97359 93.5,4C 87.8431,4.49942 82.1764,4.66609 76.5,4.5C 90.5445,1.5716 104.878,0.238263 119.5,0.5 Z"/></g>
<g><path style="opacity:1" fill="#f9f8f7" d="M 231.5,2.5 C 233.851,4.06959 236.518,4.90292 239.5,5C 244.804,9.09792 244.804,13.0979 239.5,17C 216.088,17.3509 192.755,18.6843 169.5,21C 172.522,24.2144 174.022,28.0477 174,32.5C 174.748,41.5347 174.581,50.5347 173.5,59.5C 176.206,59.5751 178.873,59.9084 181.5,60.5C 180.71,61.4013 179.71,62.0679 178.5,62.5C 176.633,62.045 174.8,61.3784 173,60.5C 171.93,60.528 171.097,60.8614 170.5,61.5C 167.672,60.5033 165.005,60.5033 162.5,61.5C 161.732,62.2625 161.232,63.2625 161,64.5C 159.989,63.6634 158.822,63.33 157.5,63.5C 156.942,62.2101 155.942,61.3768 154.5,61C 149.98,60.1864 145.646,60.353 141.5,61.5C 139.596,61.2624 138.262,60.2624 137.5,58.5C 138.985,57.0651 140.318,57.2317 141.5,59C 150.478,59.4155 159.311,59.5822 168,59.5C 169.116,54.4417 169.616,49.2751 169.5,44C 169.499,39.3205 169.166,34.8205 168.5,30.5C 168.167,29.1667 167.833,27.8333 167.5,26.5C 167.039,24.4496 166.372,22.4496 165.5,20.5C 167.113,19.5726 168.779,18.7393 170.5,18C 191.528,16.8408 212.528,15.5075 233.5,14C 238.444,12.7308 238.778,10.7308 234.5,8C 230.839,6.40748 227.172,5.24082 223.5,4.5C 226.698,5.03562 229.365,4.36895 231.5,2.5 Z"/></g>
<g><path style="opacity:1" fill="#8e8e8c" d="M 122.5,-0.5 C 151.833,-0.5 181.167,-0.5 210.5,-0.5C 210.5,-0.166667 210.5,0.166667 210.5,0.5C 191.497,0.687606 172.497,1.02094 153.5,1.5C 146.492,1.33371 139.492,1.50038 132.5,2C 130.618,2.19808 128.952,2.69808 127.5,3.5C 127.167,3.5 126.833,3.5 126.5,3.5C 98.9062,4.60308 71.5729,7.60308 44.5,12.5C 39.1563,12.334 33.8229,12.5006 28.5,13C 27.944,13.3826 27.6107,13.8826 27.5,14.5C 21.8917,18.553 15.5584,21.3863 8.5,23C 5.71963,25.8544 3.3863,29.0211 1.5,32.5C 2.12723,33.4168 2.46056,34.4168 2.5,35.5C 1.27187,34.6935 0.271873,33.6935 -0.5,32.5C -0.5,31.1667 -0.5,29.8333 -0.5,28.5C 2.56282,26.9488 5.22949,24.7821 7.5,22C 14.9312,19.1181 21.9312,15.4514 28.5,11C 35.3796,10.7105 42.0463,9.87714 48.5,8.5C 48.8333,8.5 49.1667,8.5 49.5,8.5C 58.6084,9.10519 67.2751,7.77185 75.5,4.5C 75.8333,4.5 76.1667,4.5 76.5,4.5C 82.1764,4.66609 87.8431,4.49942 93.5,4C 102.32,2.97359 110.987,1.80692 119.5,0.5C 120.791,0.737305 121.791,0.403972 122.5,-0.5 Z"/></g>
<g><path style="opacity:1" fill="#d4d4d4" d="M 224.5,1.5 C 226.95,1.29803 229.283,1.63137 231.5,2.5C 229.365,4.36895 226.698,5.03562 223.5,4.5C 218.489,4.33407 213.489,4.50074 208.5,5C 216.04,5.25649 223.373,6.58983 230.5,9C 231.833,10 231.833,11 230.5,12C 216.916,13.9963 203.249,15.163 189.5,15.5C 189.611,14.8826 189.944,14.3826 190.5,14C 201.687,13.9055 212.687,12.5722 223.5,10C 221.608,9.02655 219.608,8.35989 217.5,8C 206.693,6.73245 196.027,5.56578 185.5,4.5C 200.164,4.01158 214.831,3.51158 229.5,3C 227.618,2.80192 225.952,2.30192 224.5,1.5 Z"/></g>
<g><path style="opacity:1" fill="#e8e8e8" d="M 223.5,4.5 C 227.172,5.24082 230.839,6.40748 234.5,8C 238.778,10.7308 238.444,12.7308 233.5,14C 212.528,15.5075 191.528,16.8408 170.5,18C 168.779,18.7393 167.113,19.5726 165.5,20.5C 166.372,22.4496 167.039,24.4496 167.5,26.5C 166.5,26.1667 165.833,25.5 165.5,24.5C 165.631,23.7611 165.464,23.0944 165,22.5C 163.255,21.0443 161.422,19.711 159.5,18.5C 169.406,16.6864 179.406,15.6864 189.5,15.5C 203.249,15.163 216.916,13.9963 230.5,12C 231.833,11 231.833,10 230.5,9C 223.373,6.58983 216.04,5.25649 208.5,5C 213.489,4.50074 218.489,4.33407 223.5,4.5 Z"/></g>
<g><path style="opacity:1" fill="#bfbfbf" d="M 75.5,4.5 C 67.2751,7.77185 58.6084,9.10519 49.5,8.5C 57.8102,5.672 66.4769,4.33866 75.5,4.5 Z"/></g>
<g><path style="opacity:1" fill="#979797" d="M 171.5,5.5 C 182.328,6.54915 193.328,7.38248 204.5,8C 206.608,8.35989 208.608,9.02655 210.5,10C 189.959,13.0541 169.292,15.0541 148.5,16C 144.5,16.6667 140.5,17.3333 136.5,18C 135.663,19.0113 135.33,20.1779 135.5,21.5C 135.167,21.5 134.833,21.5 134.5,21.5C 130.018,20.6745 125.351,20.1745 120.5,20C 117.057,19.7787 116.724,18.7787 119.5,17C 135.091,14.5927 150.758,12.9261 166.5,12C 169.043,11.8603 171.377,11.1937 173.5,10C 160.327,9.83096 147.327,9.33096 134.5,8.5C 146.801,7.14347 159.135,6.14347 171.5,5.5 Z"/></g>
<g><path style="opacity:1" fill="#3e3c34" d="M 126.5,3.5 C 107.86,5.10759 89.1929,7.44092 70.5,10.5C 69.5,10.8333 68.5,11.1667 67.5,11.5C 69.1713,13.5098 69.838,15.8431 69.5,18.5C 70.5,18.5 71.5,18.5 72.5,18.5C 71.791,19.404 70.791,19.7373 69.5,19.5C 67.7845,18.4261 66.7845,16.7594 66.5,14.5C 62.0162,13.1889 57.6829,13.1889 53.5,14.5C 52.7368,16.3684 51.7368,18.0351 50.5,19.5C 49.0222,19.762 47.6888,19.4287 46.5,18.5C 45.8283,16.4705 45.1616,14.4705 44.5,12.5C 71.5729,7.60308 98.9062,4.60308 126.5,3.5 Z"/></g>
<g><path style="opacity:1" fill="#e2e2e2" d="M 48.5,8.5 C 42.0463,9.87714 35.3796,10.7105 28.5,11C 21.9312,15.4514 14.9312,19.1181 7.5,22C 5.22949,24.7821 2.56282,26.9488 -0.5,28.5C -0.5,27.1667 -0.5,25.8333 -0.5,24.5C 6.44954,19.5268 14.1162,15.8601 22.5,13.5C 23.711,11.5781 25.0443,9.74477 26.5,8C 33.8825,7.23655 41.2158,7.40321 48.5,8.5 Z"/></g>
<g><path style="opacity:1" fill="#eff9dd" d="M 50.5,19.5 C 51.7368,18.0351 52.7368,16.3684 53.5,14.5C 57.5,14.5 61.5,14.5 65.5,14.5C 66.2391,21.904 67.2391,29.2373 68.5,36.5C 69.1904,42.8097 69.5237,49.143 69.5,55.5C 65.1667,55.5 60.8333,55.5 56.5,55.5C 56.7386,49.4348 56.2386,43.4348 55,37.5C 52.3821,43.7344 50.0488,50.0677 48,56.5C 44.9642,50.3075 42.2976,43.9741 40,37.5C 39.1027,43.8059 38.6027,50.1392 38.5,56.5C 34.2325,56.797 30.0659,56.4637 26,55.5C 25.3333,52.1667 25.3333,48.8333 26,45.5C 27.72,34.8523 29.22,24.1857 30.5,13.5C 34.8839,13.1744 39.2172,13.5078 43.5,14.5C 44.4961,19.3218 45.9961,23.9884 48,28.5C 49.903,25.8294 50.7363,22.8294 50.5,19.5 Z"/></g>
<g><path style="opacity:1" fill="#6d6140" d="M 44.5,12.5 C 45.1616,14.4705 45.8283,16.4705 46.5,18.5C 47.6888,19.4287 49.0222,19.762 50.5,19.5C 50.7363,22.8294 49.903,25.8294 48,28.5C 45.9961,23.9884 44.4961,19.3218 43.5,14.5C 39.2172,13.5078 34.8839,13.1744 30.5,13.5C 29.22,24.1857 27.72,34.8523 26,45.5C 25.3333,48.8333 25.3333,52.1667 26,55.5C 30.0659,56.4637 34.2325,56.797 38.5,56.5C 39.2323,55.1917 40.0656,53.8584 41,52.5C 42.8783,54.0429 44.3783,55.8762 45.5,58C 46.9285,58.5791 48.2618,58.4124 49.5,57.5C 49.7822,58.7777 50.4489,59.7777 51.5,60.5C 47.6128,61.0546 44.6128,59.7213 42.5,56.5C 41.0815,57.0047 40.4148,58.0047 40.5,59.5C 35.6376,58.1002 30.6376,57.4335 25.5,57.5C 24.5,57.1667 23.8333,56.5 23.5,55.5C 22.438,53.7659 22.438,52.0992 23.5,50.5C 25.0995,43.0498 26.0995,35.3831 26.5,27.5C 27.1982,24.1027 27.8648,20.6027 28.5,17C 27.7476,16.3292 27.4142,15.4959 27.5,14.5C 27.6107,13.8826 27.944,13.3826 28.5,13C 33.8229,12.5006 39.1563,12.334 44.5,12.5 Z"/></g>
<g><path style="opacity:1" fill="#c3c2bf" d="M 185.5,4.5 C 196.027,5.56578 206.693,6.73245 217.5,8C 219.608,8.35989 221.608,9.02655 223.5,10C 212.687,12.5722 201.687,13.9055 190.5,14C 189.944,14.3826 189.611,14.8826 189.5,15.5C 179.406,15.6864 169.406,16.6864 159.5,18.5C 161.422,19.711 163.255,21.0443 165,22.5C 165.464,23.0944 165.631,23.7611 165.5,24.5C 158.035,20.9781 150.368,20.1448 142.5,22C 140.077,25.753 139.077,29.9197 139.5,34.5C 139.315,36.1958 138.481,37.5291 137,38.5C 136.601,38.2716 136.435,37.9382 136.5,37.5C 136.693,33.9872 136.026,30.6538 134.5,27.5C 135.156,25.5466 135.489,23.5466 135.5,21.5C 135.33,20.1779 135.663,19.0113 136.5,18C 140.5,17.3333 144.5,16.6667 148.5,16C 169.292,15.0541 189.959,13.0541 210.5,10C 208.608,9.02655 206.608,8.35989 204.5,8C 193.328,7.38248 182.328,6.54915 171.5,5.5C 176.119,4.6864 180.786,4.35307 185.5,4.5 Z"/></g>
<g><path style="opacity:1" fill="#5b5a58" d="M 103.5,12.5 C 113.323,12.7408 123.323,12.9075 133.5,13C 120.617,15.7582 107.617,17.7582 94.5,19C 93.1772,19.8159 92.5106,20.9826 92.5,22.5C 86.0458,22.1274 80.0458,23.4607 74.5,26.5C 72.9582,25.6993 71.2915,25.366 69.5,25.5C 69.5,23.5 69.5,21.5 69.5,19.5C 70.791,19.7373 71.791,19.404 72.5,18.5C 82.6554,15.7358 92.9887,13.7358 103.5,12.5 Z"/></g>
<g><path style="opacity:1" fill="#3a3831" d="M 27.5,14.5 C 27.4142,15.4959 27.7476,16.3292 28.5,17C 27.8648,20.6027 27.1982,24.1027 26.5,27.5C 26.5,24.8333 26.5,22.1667 26.5,19.5C 19.8089,20.5638 13.4756,22.7305 7.5,26C 5.48162,28.871 4.14829,32.0377 3.5,35.5C 3.16667,35.5 2.83333,35.5 2.5,35.5C 2.46056,34.4168 2.12723,33.4168 1.5,32.5C 3.3863,29.0211 5.71963,25.8544 8.5,23C 15.5584,21.3863 21.8917,18.553 27.5,14.5 Z"/></g>
<g><path style="opacity:1" fill="#787873" d="M 134.5,8.5 C 147.327,9.33096 160.327,9.83096 173.5,10C 171.377,11.1937 169.043,11.8603 166.5,12C 150.758,12.9261 135.091,14.5927 119.5,17C 116.724,18.7787 117.057,19.7787 120.5,20C 125.351,20.1745 130.018,20.6745 134.5,21.5C 127.535,22.2416 120.535,22.4083 113.5,22C 110.222,22.4506 107.556,23.9506 105.5,26.5C 106.389,24.264 107.722,22.264 109.5,20.5C 104.737,18.9679 100.404,19.6345 96.5,22.5C 95.1667,22.5 93.8333,22.5 92.5,22.5C 92.5106,20.9826 93.1772,19.8159 94.5,19C 107.617,17.7582 120.617,15.7582 133.5,13C 123.323,12.9075 113.323,12.7408 103.5,12.5C 113.738,10.4522 124.071,9.11891 134.5,8.5 Z"/></g>
<g><path style="opacity:1" fill="#908869" d="M 53.5,14.5 C 57.6829,13.1889 62.0162,13.1889 66.5,14.5C 66.7845,16.7594 67.7845,18.4261 69.5,19.5C 69.5,21.5 69.5,23.5 69.5,25.5C 71.2915,25.366 72.9582,25.6993 74.5,26.5C 73.3666,29.2709 72.3666,32.1042 71.5,35C 71.528,36.0698 71.8614,36.9032 72.5,37.5C 72.5,39.1667 72.5,40.8333 72.5,42.5C 71.6771,40.1954 70.3437,38.1954 68.5,36.5C 67.2391,29.2373 66.2391,21.904 65.5,14.5C 61.5,14.5 57.5,14.5 53.5,14.5 Z"/></g>
<g><path style="opacity:1" fill="#080704" d="M 26.5,27.5 C 26.0995,35.3831 25.0995,43.0498 23.5,50.5C 17.819,47.3272 12.4856,43.6605 7.5,39.5C 6.16667,38.5 4.83333,37.5 3.5,36.5C 3.5,36.1667 3.5,35.8333 3.5,35.5C 4.14829,32.0377 5.48162,28.871 7.5,26C 13.4756,22.7305 19.8089,20.5638 26.5,19.5C 26.5,22.1667 26.5,24.8333 26.5,27.5 Z"/></g>
<g><path style="opacity:1" fill="#95938d" d="M 105.5,26.5 C 105.539,27.7562 105.039,28.7562 104,29.5C 101.604,26.9334 99.1041,24.6 96.5,22.5C 100.404,19.6345 104.737,18.9679 109.5,20.5C 107.722,22.264 106.389,24.264 105.5,26.5 Z"/></g>
<g><path style="opacity:1" fill="#f1fadf" d="M 120.5,23.5 C 122.292,24.3091 124.292,24.8091 126.5,25C 123.223,27.7663 120.557,30.933 118.5,34.5C 117.5,34.8333 116.833,35.5 116.5,36.5C 115.04,40.645 112.373,43.9783 108.5,46.5C 106.827,45.657 105.66,44.3237 105,42.5C 104.238,38.4126 104.404,34.4126 105.5,30.5C 109.065,25.2187 114.065,22.8854 120.5,23.5 Z"/></g>
<g><path style="opacity:1" fill="#7f7452" d="M 165.5,24.5 C 165.833,25.5 166.5,26.1667 167.5,26.5C 167.833,27.8333 168.167,29.1667 168.5,30.5C 167.833,30.5 167.5,30.8333 167.5,31.5C 167.167,31.5 166.833,31.5 166.5,31.5C 166.759,29.0107 165.759,27.344 163.5,26.5C 162.4,25.4415 161.066,24.6082 159.5,24C 153.813,23.0265 148.313,23.5265 143,25.5C 141.872,27.3453 141.372,29.3453 141.5,31.5C 140.226,32.1894 140.226,33.0228 141.5,34C 140.906,34.4643 140.239,34.631 139.5,34.5C 139.077,29.9197 140.077,25.753 142.5,22C 150.368,20.1448 158.035,20.9781 165.5,24.5 Z"/></g>
<g><path style="opacity:1" fill="#f0f9dd" d="M 102.5,30.5 C 103.303,31.4232 103.47,32.4232 103,33.5C 98.5,37.3333 94,41.1667 89.5,45C 92.3044,45.4597 94.9711,44.9597 97.5,43.5C 104.275,48.514 103.941,52.6807 96.5,56C 90.2453,57.1268 84.2453,56.4601 78.5,54C 75.0829,50.9223 73.0829,47.089 72.5,42.5C 72.5,40.8333 72.5,39.1667 72.5,37.5C 75.8636,25.7478 83.5302,21.5812 95.5,25C 98.3055,26.3823 100.639,28.2156 102.5,30.5 Z"/></g>
<g><path style="opacity:1" fill="#e0d293" d="M 163.5,26.5 C 160.526,29.1379 157.526,31.8046 154.5,34.5C 154.389,33.8826 154.056,33.3826 153.5,33C 149.312,32.8238 145.312,32.3238 141.5,31.5C 141.372,29.3453 141.872,27.3453 143,25.5C 148.313,23.5265 153.813,23.0265 159.5,24C 161.066,24.6082 162.4,25.4415 163.5,26.5 Z"/></g>
<g><path style="opacity:1" fill="#7f744d" d="M 134.5,21.5 C 134.833,21.5 135.167,21.5 135.5,21.5C 135.489,23.5466 135.156,25.5466 134.5,27.5C 136.026,30.6538 136.693,33.9872 136.5,37.5C 135.833,36.5 135.167,35.5 134.5,34.5C 134.327,31.8205 133.327,29.4872 131.5,27.5C 132.167,26.1667 132.833,24.8333 133.5,23.5C 129.266,23.1815 124.933,23.1815 120.5,23.5C 114.065,22.8854 109.065,25.2187 105.5,30.5C 104.5,30.5 103.5,30.5 102.5,30.5C 100.639,28.2156 98.3055,26.3823 95.5,25C 83.5302,21.5812 75.8636,25.7478 72.5,37.5C 71.8614,36.9032 71.528,36.0698 71.5,35C 72.3666,32.1042 73.3666,29.2709 74.5,26.5C 80.0458,23.4607 86.0458,22.1274 92.5,22.5C 93.8333,22.5 95.1667,22.5 96.5,22.5C 99.1041,24.6 101.604,26.9334 104,29.5C 105.039,28.7562 105.539,27.7562 105.5,26.5C 107.556,23.9506 110.222,22.4506 113.5,22C 120.535,22.4083 127.535,22.2416 134.5,21.5 Z"/></g>
<g><path style="opacity:1" fill="#ceb456" d="M 166.5,31.5 C 166.833,31.5 167.167,31.5 167.5,31.5C 167.5,39.5 167.5,47.5 167.5,55.5C 163.548,56.2721 159.548,56.6054 155.5,56.5C 155.649,55.448 155.483,54.448 155,53.5C 150.84,56.8455 146.673,57.1788 142.5,54.5C 147.975,52.255 150.642,48.4217 150.5,43C 152.5,42.6667 154.5,42.3333 156.5,42C 160.037,38.6309 163.371,35.1309 166.5,31.5 Z"/></g>
<g><path style="opacity:1" fill="#b29b63" d="M 85.5,33.5 C 87.288,33.2148 88.9547,33.5481 90.5,34.5C 88.9095,36.6326 86.9095,38.2993 84.5,39.5C 83.5307,37.3835 83.864,35.3835 85.5,33.5 Z"/></g>
<g><path style="opacity:1" fill="#fefffe" d="M 2.5,35.5 C 2.83333,35.5 3.16667,35.5 3.5,35.5C 3.5,35.8333 3.5,36.1667 3.5,36.5C 3.82574,39.3113 4.65907,41.978 6,44.5C 10.8653,49.7 16.0319,54.5334 21.5,59C 36.2009,67.3629 51.5342,74.3629 67.5,80C 73.9806,82.4308 80.6472,83.4308 87.5,83C 88.3567,82.3109 89.0233,81.4776 89.5,80.5C 87.3384,78.1402 85.3384,75.8069 83.5,73.5C 90.6586,73.9767 93.6586,77.6434 92.5,84.5C 90.9788,85.9373 89.1454,86.604 87,86.5C 69.444,82.808 52.6107,76.9746 36.5,69C 31.404,65.7853 26.0707,63.1187 20.5,61C 14.301,55.1356 8.46767,48.9689 3,42.5C 2.50335,40.1902 2.33669,37.8568 2.5,35.5 Z"/></g>
<g><path style="opacity:1" fill="#e2d18f" d="M 152.5,36.5 C 148.5,41.8333 143.833,46.5 138.5,50.5C 137.662,50.1583 137.328,49.4916 137.5,48.5C 136.698,37.0795 141.698,33.0795 152.5,36.5 Z"/></g>
<g><path style="opacity:1" fill="#decb75" d="M 163.5,26.5 C 165.759,27.344 166.759,29.0107 166.5,31.5C 163.371,35.1309 160.037,38.6309 156.5,42C 154.5,42.3333 152.5,42.6667 150.5,43C 150.642,48.4217 147.975,52.255 142.5,54.5C 140.167,54.1667 138.833,52.8333 138.5,50.5C 143.833,46.5 148.5,41.8333 152.5,36.5C 154.993,36.8693 155.66,36.2027 154.5,34.5C 157.526,31.8046 160.526,29.1379 163.5,26.5 Z"/></g>
<g><path style="opacity:1" fill="#a48f54" d="M 118.5,34.5 C 122.071,34.4077 123.238,36.0743 122,39.5C 118.534,41.35 116.701,40.35 116.5,36.5C 116.833,35.5 117.5,34.8333 118.5,34.5 Z"/></g>
<g><path style="opacity:1" fill="#eeebc5" d="M 134.5,34.5 C 134.5,35.5 134.5,36.5 134.5,37.5C 129.224,41.4373 124.224,45.7706 119.5,50.5C 114.982,51.1329 111.316,49.7995 108.5,46.5C 112.373,43.9783 115.04,40.645 116.5,36.5C 116.701,40.35 118.534,41.35 122,39.5C 123.238,36.0743 122.071,34.4077 118.5,34.5C 120.557,30.933 123.223,27.7663 126.5,25C 124.292,24.8091 122.292,24.3091 120.5,23.5C 124.933,23.1815 129.266,23.1815 133.5,23.5C 132.833,24.8333 132.167,26.1667 131.5,27.5C 133.327,29.4872 134.327,31.8205 134.5,34.5 Z"/></g>
<g><path style="opacity:1" fill="#9f8a50" d="M 141.5,31.5 C 145.312,32.3238 149.312,32.8238 153.5,33C 154.056,33.3826 154.389,33.8826 154.5,34.5C 155.66,36.2027 154.993,36.8693 152.5,36.5C 141.698,33.0795 136.698,37.0795 137.5,48.5C 136.71,47.3915 136.21,46.0581 136,44.5C 135.667,46.1667 135.333,47.8333 135,49.5C 134.162,48.001 133.329,47.6676 132.5,48.5C 131.522,48.189 130.855,47.5223 130.5,46.5C 133.199,44.1019 134.533,41.1019 134.5,37.5C 134.5,36.5 134.5,35.5 134.5,34.5C 135.167,35.5 135.833,36.5 136.5,37.5C 136.435,37.9382 136.601,38.2716 137,38.5C 138.481,37.5291 139.315,36.1958 139.5,34.5C 140.239,34.631 140.906,34.4643 141.5,34C 140.226,33.0228 140.226,32.1894 141.5,31.5 Z"/></g>
<g><path style="opacity:1" fill="#a0a09e" d="M 7.5,39.5 C 12.4856,43.6605 17.819,47.3272 23.5,50.5C 22.438,52.0992 22.438,53.7659 23.5,55.5C 17.1182,51.1182 11.7849,45.7849 7.5,39.5 Z"/></g>
<g><path style="opacity:1" fill="#8a7341" d="M 102.5,30.5 C 103.5,30.5 104.5,30.5 105.5,30.5C 104.404,34.4126 104.238,38.4126 105,42.5C 105.66,44.3237 106.827,45.657 108.5,46.5C 111.316,49.7995 114.982,51.1329 119.5,50.5C 120.828,51.5072 121.828,52.8405 122.5,54.5C 122.145,55.5223 121.478,56.189 120.5,56.5C 120.5,55.8333 120.167,55.5 119.5,55.5C 120.598,54.603 120.598,53.7697 119.5,53C 110.049,52.7411 104.049,47.9077 101.5,38.5C 97.5829,39.4368 97.0829,40.7702 100,42.5C 101.973,45.4639 103.473,48.6306 104.5,52C 103.378,54.5816 101.378,56.2483 98.5,57C 87.6886,60.8898 78.8552,58.3898 72,49.5C 71.7744,52.095 71.2744,54.595 70.5,57C 65.8452,57.4992 61.1785,57.6658 56.5,57.5C 54.9089,53.7964 54.0756,49.7964 54,45.5C 53.1048,49.7631 51.6048,53.7631 49.5,57.5C 48.2618,58.4124 46.9285,58.5791 45.5,58C 44.3783,55.8762 42.8783,54.0429 41,52.5C 40.0656,53.8584 39.2323,55.1917 38.5,56.5C 38.6027,50.1392 39.1027,43.8059 40,37.5C 42.2976,43.9741 44.9642,50.3075 48,56.5C 50.0488,50.0677 52.3821,43.7344 55,37.5C 56.2386,43.4348 56.7386,49.4348 56.5,55.5C 60.8333,55.5 65.1667,55.5 69.5,55.5C 69.5237,49.143 69.1904,42.8097 68.5,36.5C 70.3437,38.1954 71.6771,40.1954 72.5,42.5C 73.0829,47.089 75.0829,50.9223 78.5,54C 84.2453,56.4601 90.2453,57.1268 96.5,56C 103.941,52.6807 104.275,48.514 97.5,43.5C 94.9711,44.9597 92.3044,45.4597 89.5,45C 94,41.1667 98.5,37.3333 103,33.5C 103.47,32.4232 103.303,31.4232 102.5,30.5 Z"/></g>
<g><path style="opacity:1" fill="#ded5c0" d="M 119.5,55.5 C 115.446,54.8155 111.446,54.8155 107.5,55.5C 104.872,58.7133 103.205,62.38 102.5,66.5C 101.861,65.9032 101.528,65.0698 101.5,64C 105.246,57.0507 103.912,55.384 97.5,59C 89.3198,60.5183 81.6531,59.3517 74.5,55.5C 73.354,56.1449 72.354,56.9783 71.5,58C 66.3158,58.8163 61.3158,58.6497 56.5,57.5C 61.1785,57.6658 65.8452,57.4992 70.5,57C 71.2744,54.595 71.7744,52.095 72,49.5C 78.8552,58.3898 87.6886,60.8898 98.5,57C 101.378,56.2483 103.378,54.5816 104.5,52C 103.473,48.6306 101.973,45.4639 100,42.5C 97.0829,40.7702 97.5829,39.4368 101.5,38.5C 104.049,47.9077 110.049,52.7411 119.5,53C 120.598,53.7697 120.598,54.603 119.5,55.5 Z"/></g>
<g><path style="opacity:1" fill="#e4e4e3" d="M 3.5,36.5 C 4.83333,37.5 6.16667,38.5 7.5,39.5C 11.7849,45.7849 17.1182,51.1182 23.5,55.5C 23.8333,56.5 24.5,57.1667 25.5,57.5C 33.2044,61.5154 41.2044,65.3487 49.5,69C 52.343,69.4461 55.1764,69.9461 58,70.5C 59.6067,69.9265 61.1067,69.2598 62.5,68.5C 68.2212,70.4614 74.0545,72.128 80,73.5C 80.5,73.3333 81,73.1667 81.5,73C 80.5842,72.7216 79.9175,72.2216 79.5,71.5C 81.3797,71.2291 82.713,71.8958 83.5,73.5C 85.3384,75.8069 87.3384,78.1402 89.5,80.5C 89.0233,81.4776 88.3567,82.3109 87.5,83C 80.6472,83.4308 73.9806,82.4308 67.5,80C 51.5342,74.3629 36.2009,67.3629 21.5,59C 16.0319,54.5334 10.8653,49.7 6,44.5C 4.65907,41.978 3.82574,39.3113 3.5,36.5 Z"/></g>
<g><path style="opacity:1" fill="#f4f3f1" d="M 56.5,57.5 C 61.3158,58.6497 66.3158,58.8163 71.5,58C 72.354,56.9783 73.354,56.1449 74.5,55.5C 81.6531,59.3517 89.3198,60.5183 97.5,59C 103.912,55.384 105.246,57.0507 101.5,64C 101.528,65.0698 101.861,65.9032 102.5,66.5C 107.482,68.7388 112.816,69.7388 118.5,69.5C 119.5,70.1667 120.5,70.8333 121.5,71.5C 122.129,73.9971 123.796,75.3304 126.5,75.5C 132.023,76.7109 137.69,76.7109 143.5,75.5C 143.804,76.1499 144.137,76.8165 144.5,77.5C 147.167,77.8333 149.833,78.1667 152.5,78.5C 158.859,77.5872 165.192,77.4205 171.5,78C 170.742,76.6361 171.242,75.4695 173,74.5C 172.734,71.0992 174.234,69.4326 177.5,69.5C 178.757,73.0729 180.757,76.0729 183.5,78.5C 180.012,77.8566 177.512,75.8566 176,72.5C 175.205,74.9012 174.038,77.0679 172.5,79C 156.527,79.3733 140.527,79.3733 124.5,79C 122.156,78.1628 120.156,76.8294 118.5,75C 112.384,74.6473 106.384,73.6473 100.5,72C 98.0695,69.6954 97.0695,66.8621 97.5,63.5C 90.0485,63.9098 82.7152,63.2432 75.5,61.5C 71.5144,62.1095 67.5144,62.6095 63.5,63C 68.7679,66.1317 74.1013,68.9651 79.5,71.5C 73.8592,70.6186 68.5258,68.9519 63.5,66.5C 59.5,64.5 55.5,62.5 51.5,60.5C 50.4489,59.7777 49.7822,58.7777 49.5,57.5C 51.6048,53.7631 53.1048,49.7631 54,45.5C 54.0756,49.7964 54.9089,53.7964 56.5,57.5 Z"/></g>
<g><path style="opacity:1" fill="#725825" d="M 168.5,30.5 C 168.817,39.4178 168.484,48.2511 167.5,57C 158.833,57.6667 150.167,57.6667 141.5,57C 140.019,56.0197 138.685,54.853 137.5,53.5C 136.571,54.6888 136.238,56.0222 136.5,57.5C 132.167,57.5 127.833,57.5 123.5,57.5C 126.962,56.5184 130.629,56.185 134.5,56.5C 134.713,53.5491 134.046,50.8825 132.5,48.5C 133.329,47.6676 134.162,48.001 135,49.5C 135.333,47.8333 135.667,46.1667 136,44.5C 136.21,46.0581 136.71,47.3915 137.5,48.5C 137.328,49.4916 137.662,50.1583 138.5,50.5C 138.833,52.8333 140.167,54.1667 142.5,54.5C 146.673,57.1788 150.84,56.8455 155,53.5C 155.483,54.448 155.649,55.448 155.5,56.5C 159.548,56.6054 163.548,56.2721 167.5,55.5C 167.5,47.5 167.5,39.5 167.5,31.5C 167.5,30.8333 167.833,30.5 168.5,30.5 Z"/></g>
<g><path style="opacity:1" fill="#0b0a07" d="M 123.5,57.5 C 127.833,57.5 132.167,57.5 136.5,57.5C 136.843,59.4832 136.176,60.8166 134.5,61.5C 132.205,59.615 129.538,59.115 126.5,60C 122.533,62.9658 122.533,65.7992 126.5,68.5C 129.362,69.6813 132.362,69.6813 135.5,68.5C 136.828,69.9097 136.495,71.0764 134.5,72C 130.08,72.7684 125.747,72.6018 121.5,71.5C 120.5,70.8333 119.5,70.1667 118.5,69.5C 117.631,67.283 117.298,64.9496 117.5,62.5C 118.638,59.9138 120.638,58.2471 123.5,57.5 Z"/></g>
<g><path style="opacity:1" fill="#e2d497" d="M 134.5,37.5 C 134.533,41.1019 133.199,44.1019 130.5,46.5C 130.855,47.5223 131.522,48.189 132.5,48.5C 134.046,50.8825 134.713,53.5491 134.5,56.5C 130.629,56.185 126.962,56.5184 123.5,57.5C 120.638,58.2471 118.638,59.9138 117.5,62.5C 116.549,63.9187 116.216,65.5853 116.5,67.5C 113.813,67.6641 111.146,67.4974 108.5,67C 106.714,66.8038 105.381,65.9705 104.5,64.5C 107.276,57.312 112.609,54.6453 120.5,56.5C 121.478,56.189 122.145,55.5223 122.5,54.5C 121.828,52.8405 120.828,51.5072 119.5,50.5C 124.224,45.7706 129.224,41.4373 134.5,37.5 Z"/></g>
<g><path style="opacity:1" fill="#dcd4bf" d="M 168.5,30.5 C 169.166,34.8205 169.499,39.3205 169.5,44C 169.616,49.2751 169.116,54.4417 168,59.5C 159.311,59.5822 150.478,59.4155 141.5,59C 140.318,57.2317 138.985,57.0651 137.5,58.5C 137.5,57.8333 137.167,57.5 136.5,57.5C 136.238,56.0222 136.571,54.6888 137.5,53.5C 138.685,54.853 140.019,56.0197 141.5,57C 150.167,57.6667 158.833,57.6667 167.5,57C 168.484,48.2511 168.817,39.4178 168.5,30.5 Z"/></g>
<g><path style="opacity:1" fill="#745a29" d="M 119.5,55.5 C 120.167,55.5 120.5,55.8333 120.5,56.5C 112.609,54.6453 107.276,57.312 104.5,64.5C 105.381,65.9705 106.714,66.8038 108.5,67C 111.146,67.4974 113.813,67.6641 116.5,67.5C 116.216,65.5853 116.549,63.9187 117.5,62.5C 117.298,64.9496 117.631,67.283 118.5,69.5C 112.816,69.7388 107.482,68.7388 102.5,66.5C 103.205,62.38 104.872,58.7133 107.5,55.5C 111.446,54.8155 115.446,54.8155 119.5,55.5 Z"/></g>
<g><path style="opacity:1" fill="#1e1e1c" d="M 51.5,60.5 C 55.5,62.5 59.5,64.5 63.5,66.5C 63.5,67.1667 63.1667,67.5 62.5,67.5C 54.7707,65.7409 47.4374,63.0743 40.5,59.5C 40.4148,58.0047 41.0815,57.0047 42.5,56.5C 44.6128,59.7213 47.6128,61.0546 51.5,60.5 Z"/></g>
<g><path style="opacity:1" fill="#161614" d="M 157.5,63.5 C 157.5,64.5 157.5,65.5 157.5,66.5C 157.5,68.5 157.5,70.5 157.5,72.5C 153.126,71.584 148.792,71.584 144.5,72.5C 141,72.5046 139.5,70.8379 140,67.5C 143.215,65.5395 146.715,64.3728 150.5,64C 147.008,64.0704 144.008,63.2371 141.5,61.5C 145.646,60.353 149.98,60.1864 154.5,61C 155.942,61.3768 156.942,62.2101 157.5,63.5 Z"/></g>
<g><path style="opacity:1" fill="#141312" d="M 170.5,61.5 C 171.833,61.5 173.167,61.5 174.5,61.5C 174.5,62.5 174.5,63.5 174.5,64.5C 172.5,64.5 170.5,64.5 168.5,64.5C 168.5,67.1667 168.5,69.8333 168.5,72.5C 167.167,72.5 165.833,72.5 164.5,72.5C 163.833,72.5 163.167,72.5 162.5,72.5C 162.5,68.8333 162.5,65.1667 162.5,61.5C 165.005,60.5033 167.672,60.5033 170.5,61.5 Z"/></g>
<g><path style="opacity:1" fill="#131311" d="M 181.5,60.5 C 181.833,60.5 182.167,60.5 182.5,60.5C 185.518,60.3354 188.518,60.502 191.5,61C 193.324,61.66 194.657,62.8267 195.5,64.5C 195.5,64.8333 195.5,65.1667 195.5,65.5C 191.916,67.1182 187.916,68.1182 183.5,68.5C 187.493,69.6125 191.493,69.6125 195.5,68.5C 195.67,69.8221 195.337,70.9887 194.5,72C 190.848,72.4986 187.182,72.6653 183.5,72.5C 182.391,72.4431 181.391,72.1098 180.5,71.5C 179.5,70.8333 178.5,70.1667 177.5,69.5C 177.5,69.1667 177.5,68.8333 177.5,68.5C 177.325,66.3792 177.659,64.3792 178.5,62.5C 179.71,62.0679 180.71,61.4013 181.5,60.5 Z"/></g>
<g><path style="opacity:1" fill="#61532e" d="M 134.5,61.5 C 133.032,65.2296 130.365,67.563 126.5,68.5C 122.533,65.7992 122.533,62.9658 126.5,60C 129.538,59.115 132.205,59.615 134.5,61.5 Z"/></g>
<g><path style="opacity:1" fill="#5c5c5b" d="M 182.5,63.5 C 184.924,63.1924 187.257,63.5258 189.5,64.5C 188.333,64.8333 187.167,65.1667 186,65.5C 184.319,65.3917 183.152,64.7251 182.5,63.5 Z"/></g>
<g><path style="opacity:1" fill="#a5a5a3" d="M 25.5,57.5 C 30.6376,57.4335 35.6376,58.1002 40.5,59.5C 47.4374,63.0743 54.7707,65.7409 62.5,67.5C 62.5,67.8333 62.5,68.1667 62.5,68.5C 61.1067,69.2598 59.6067,69.9265 58,70.5C 55.1764,69.9461 52.343,69.4461 49.5,69C 41.2044,65.3487 33.2044,61.5154 25.5,57.5 Z"/></g>
<g><path style="opacity:1" fill="#484745" d="M 63.5,66.5 C 68.5258,68.9519 73.8592,70.6186 79.5,71.5C 79.9175,72.2216 80.5842,72.7216 81.5,73C 81,73.1667 80.5,73.3333 80,73.5C 74.0545,72.128 68.2212,70.4614 62.5,68.5C 62.5,68.1667 62.5,67.8333 62.5,67.5C 63.1667,67.5 63.5,67.1667 63.5,66.5 Z"/></g>
<g><path style="opacity:1" fill="#a4a4a3" d="M 195.5,65.5 C 195.5,65.1667 195.5,64.8333 195.5,64.5C 196.496,64.4142 197.329,64.7476 198,65.5C 198.789,67.5802 199.956,69.4135 201.5,71C 200.99,72.8261 200.156,72.9928 199,71.5C 198.727,73.3289 197.893,74.8289 196.5,76C 192.5,76.6667 188.5,76.6667 184.5,76C 182.249,75.2525 180.916,73.7525 180.5,71.5C 181.391,72.1098 182.391,72.4431 183.5,72.5C 184.152,73.7251 185.319,74.3917 187,74.5C 189.856,74.1289 192.689,73.6289 195.5,73C 198.002,70.2991 198.002,67.7991 195.5,65.5 Z"/></g>
<g><path style="opacity:1" fill="#8d8d8b" d="M 135.5,68.5 C 135.56,67.9569 135.893,67.6236 136.5,67.5C 137.23,69.3413 137.897,71.1746 138.5,73C 137.833,73.6667 137.167,74.3333 136.5,75C 133.183,75.4983 129.85,75.665 126.5,75.5C 123.796,75.3304 122.129,73.9971 121.5,71.5C 125.747,72.6018 130.08,72.7684 134.5,72C 136.495,71.0764 136.828,69.9097 135.5,68.5 Z"/></g>
<g><path style="opacity:1" fill="#e1e1e1" d="M 182.5,60.5 C 186.646,59.353 190.98,59.1864 195.5,60C 198.961,61.3046 201.628,63.4713 203.5,66.5C 201.866,69.2376 202.533,71.2376 205.5,72.5C 206.23,74.045 207.563,74.8784 209.5,75C 215.167,75.6667 220.833,75.6667 226.5,75C 229.133,73.3111 229.133,71.8111 226.5,70.5C 226.567,69.0413 226.234,67.7079 225.5,66.5C 231.316,67.8489 232.983,71.3489 230.5,77C 220.562,78.0098 210.728,77.5098 201,75.5C 195.634,78.2219 189.801,79.2219 183.5,78.5C 180.757,76.0729 178.757,73.0729 177.5,69.5C 178.5,70.1667 179.5,70.8333 180.5,71.5C 180.916,73.7525 182.249,75.2525 184.5,76C 188.5,76.6667 192.5,76.6667 196.5,76C 197.893,74.8289 198.727,73.3289 199,71.5C 200.156,72.9928 200.99,72.8261 201.5,71C 199.956,69.4135 198.789,67.5802 198,65.5C 197.329,64.7476 196.496,64.4142 195.5,64.5C 194.657,62.8267 193.324,61.66 191.5,61C 188.518,60.502 185.518,60.3354 182.5,60.5 Z"/></g>
<g><path style="opacity:1" fill="#30302d" d="M 225.5,66.5 C 226.234,67.7079 226.567,69.0413 226.5,70.5C 226.179,72.0481 225.179,72.7148 223.5,72.5C 223.669,67.9593 223.002,67.626 221.5,71.5C 220.833,70.5 220.167,69.5 219.5,68.5C 217.942,73.6945 216.942,73.6945 216.5,68.5C 218.988,66.6122 221.988,65.9455 225.5,66.5 Z"/></g>
<g><path style="opacity:1" fill="#343432" d="M 203.5,66.5 C 203.833,66.5 204.167,66.5 204.5,66.5C 205.5,66.5 206.5,66.5 207.5,66.5C 206.194,67.4674 205.527,68.8007 205.5,70.5C 209.5,71.1667 209.5,71.8333 205.5,72.5C 202.533,71.2376 201.866,69.2376 203.5,66.5 Z"/></g>
<g><path style="opacity:1" fill="#2d2d29" d="M 215.5,68.5 C 215.299,72.35 213.466,73.35 210,71.5C 209.51,70.2068 209.343,68.8734 209.5,67.5C 211.901,65.9378 213.901,66.2712 215.5,68.5 Z"/></g>
<g><path style="opacity:1" fill="#8f8f8e" d="M 170.5,61.5 C 171.097,60.8614 171.93,60.528 173,60.5C 174.8,61.3784 176.633,62.045 178.5,62.5C 177.659,64.3792 177.325,66.3792 177.5,68.5C 173.113,68.3847 170.78,70.5514 170.5,75C 168.833,75.6667 167.167,75.6667 165.5,75C 164.748,74.3292 164.414,73.4959 164.5,72.5C 165.833,72.5 167.167,72.5 168.5,72.5C 168.5,69.8333 168.5,67.1667 168.5,64.5C 170.5,64.5 172.5,64.5 174.5,64.5C 174.5,63.5 174.5,62.5 174.5,61.5C 173.167,61.5 171.833,61.5 170.5,61.5 Z"/></g>
<g><path style="opacity:1" fill="#7f7f7e" d="M 195.5,65.5 C 198.002,67.7991 198.002,70.2991 195.5,73C 192.689,73.6289 189.856,74.1289 187,74.5C 185.319,74.3917 184.152,73.7251 183.5,72.5C 187.182,72.6653 190.848,72.4986 194.5,72C 195.337,70.9887 195.67,69.8221 195.5,68.5C 191.493,69.6125 187.493,69.6125 183.5,68.5C 187.916,68.1182 191.916,67.1182 195.5,65.5 Z"/></g>
<g><path style="opacity:1" fill="#a4a4a3" d="M 207.5,66.5 C 208.167,66.8333 208.833,67.1667 209.5,67.5C 209.343,68.8734 209.51,70.2068 210,71.5C 213.466,73.35 215.299,72.35 215.5,68.5C 215.833,68.5 216.167,68.5 216.5,68.5C 216.942,73.6945 217.942,73.6945 219.5,68.5C 220.167,69.5 220.833,70.5 221.5,71.5C 223.002,67.626 223.669,67.9593 223.5,72.5C 225.179,72.7148 226.179,72.0481 226.5,70.5C 229.133,71.8111 229.133,73.3111 226.5,75C 220.833,75.6667 215.167,75.6667 209.5,75C 207.563,74.8784 206.23,74.045 205.5,72.5C 209.5,71.8333 209.5,71.1667 205.5,70.5C 205.527,68.8007 206.194,67.4674 207.5,66.5 Z"/></g>
<g><path style="opacity:1" fill="#b6b5b3" d="M 136.5,57.5 C 137.167,57.5 137.5,57.8333 137.5,58.5C 138.262,60.2624 139.596,61.2624 141.5,61.5C 144.008,63.2371 147.008,64.0704 150.5,64C 146.715,64.3728 143.215,65.5395 140,67.5C 139.5,70.8379 141,72.5046 144.5,72.5C 144.97,73.6935 145.97,74.3601 147.5,74.5C 151.155,73.9181 154.822,73.4181 158.5,73C 160.02,70.4485 159.687,68.2818 157.5,66.5C 157.5,65.5 157.5,64.5 157.5,63.5C 158.822,63.33 159.989,63.6634 161,64.5C 161.232,63.2625 161.732,62.2625 162.5,61.5C 162.5,65.1667 162.5,68.8333 162.5,72.5C 161.373,73.1217 160.373,73.955 159.5,75C 154.177,75.4994 148.844,75.666 143.5,75.5C 137.69,76.7109 132.023,76.7109 126.5,75.5C 129.85,75.665 133.183,75.4983 136.5,75C 137.167,74.3333 137.833,73.6667 138.5,73C 137.897,71.1746 137.23,69.3413 136.5,67.5C 135.893,67.6236 135.56,67.9569 135.5,68.5C 132.362,69.6813 129.362,69.6813 126.5,68.5C 130.365,67.563 133.032,65.2296 134.5,61.5C 136.176,60.8166 136.843,59.4832 136.5,57.5 Z"/></g>
<g><path style="opacity:1" fill="#767673" d="M 157.5,66.5 C 159.687,68.2818 160.02,70.4485 158.5,73C 154.822,73.4181 151.155,73.9181 147.5,74.5C 145.97,74.3601 144.97,73.6935 144.5,72.5C 148.792,71.584 153.126,71.584 157.5,72.5C 157.5,70.5 157.5,68.5 157.5,66.5 Z"/></g>
<g><path style="opacity:1" fill="#7b7b77" d="M 145.5,67.5 C 147.604,67.2011 149.604,67.5344 151.5,68.5C 150.5,68.8333 149.5,69.1667 148.5,69.5C 146.97,69.3601 145.97,68.6935 145.5,67.5 Z"/></g>
<g><path style="opacity:1" fill="#e1e1e1" d="M 177.5,68.5 C 177.5,68.8333 177.5,69.1667 177.5,69.5C 174.234,69.4326 172.734,71.0992 173,74.5C 171.242,75.4695 170.742,76.6361 171.5,78C 165.192,77.4205 158.859,77.5872 152.5,78.5C 149.833,78.1667 147.167,77.8333 144.5,77.5C 144.137,76.8165 143.804,76.1499 143.5,75.5C 148.844,75.666 154.177,75.4994 159.5,75C 160.373,73.955 161.373,73.1217 162.5,72.5C 163.167,72.5 163.833,72.5 164.5,72.5C 164.414,73.4959 164.748,74.3292 165.5,75C 167.167,75.6667 168.833,75.6667 170.5,75C 170.78,70.5514 173.113,68.3847 177.5,68.5 Z"/></g>
<g><path style="opacity:1" fill="#f9f9f9" d="M 204.5,66.5 C 212.656,65.3434 220.99,65.1768 229.5,66C 233.763,69.3211 234.429,73.3211 231.5,78C 226.274,79.1181 220.941,79.6181 215.5,79.5C 204.738,79.1815 194.071,78.8482 183.5,78.5C 189.801,79.2219 195.634,78.2219 201,75.5C 210.728,77.5098 220.562,78.0098 230.5,77C 232.983,71.3489 231.316,67.8489 225.5,66.5C 221.988,65.9455 218.988,66.6122 216.5,68.5C 216.167,68.5 215.833,68.5 215.5,68.5C 213.901,66.2712 211.901,65.9378 209.5,67.5C 208.833,67.1667 208.167,66.8333 207.5,66.5C 206.5,66.5 205.5,66.5 204.5,66.5 Z"/></g>
</svg>
